<svg height="50" viewBox="-45 -35 75 80" xmlns="http://www.w3.org/2000/svg" version="1.1"><defs> <linearGradient id="sw-gradient" x1="0" x2="1" y1="1" y2="0"><stop id="stop1" stop-color="rgba(55, 231.656, 248, 0.62)" offset="0%"></stop><stop id="stop2" stop-color="rgba(31, 251, 83.322, 0.69)" offset="100%"></stop></linearGradient></defs><path fill="url(#sw-gradient)" width="50px" d="M19.8,-23.5C23.9,-20.2,24.2,-12.3,24.7,-5C25.2,2.3,25.9,8.8,24.6,17.2C23.3,25.5,20,35.7,13.5,38.6C7.1,41.6,-2.5,37.4,-11.2,33.2C-19.9,29,-27.6,24.7,-33.3,17.8C-39,10.9,-42.6,1.4,-39.2,-5.1C-35.9,-11.5,-25.5,-14.8,-17.8,-17.5C-10.1,-20.2,-5.1,-22.2,1.4,-23.9C7.9,-25.5,15.7,-26.8,19.8,-23.5Z"></path><text z="1" x="-30%" y="15%" fill="Black" font-size="30" opacity="0.8">⌨️</text></svg>